# xmcd
#
# Track frame offsets:
#	150
#	14297
#	33606
#	44064
#	56580
#	70575
#	83878
#	97242
#	108446
#	120450
#	132110
#	141832
#	150759
#	161802
#	172229
#	185831
#	202502
#	214262
#	226387
#	237228
#
# Disc length: 3328 seconds
#
# Revision: 0
# Processed by: cddbd v1.5.1PL0 Copyright (c) Steve Scherf et al.
# Submitted via: dBpowerAMP V4.0
#
DISCID=190cfe14
DTITLE=Various Artist - We´re gonna boogie
DYEAR=1900
DGENRE=Blues
TTITLE0=Lefty Dizz - We´re gonna boogie
TTITLE1=John little John - Shake your moneymaker
TTITLE2=Poor Bob - The sun is rising
TTITLE3=West Virginia Slim - Only sixteen
TTITLE4=Richard Riggins - Dust my broom
TTITLE5=Willie Williams - Wine head woman
TTITLE6=Prez Kenneth - I am the man downstairs
TTITLE7=Long gone Miles - Hello Josephine
TTITLE8=Prez Kenneth - I am looking for my baby
TTITLE9=Model T.Slim - Shake your boogie
TTITLE10=Cliff Jackson - Nine below Zero
TTITLE11=Model T.Slim -Jackson Tennessee
TTITLE12=Big Jack Reynolds and his bluesmen - I had a little dog
TTITLE13=Poor Bob - Ain´t got a dime
TTITLE14=Otis Spann - You´re gonna miss me when I´m gone
TTITLE15=Johnny Young and Big Walter - Don´t you lie to me
TTITLE16=Homesick James - Crutch and Cane
TTITLE17=John little John -Bloody tears
TTITLE18=Alabama Watson- Cost time
TTITLE19=West Virginia Slim - I love you
EXTD=Rough blues from the early 60´s to the 70´s\nLabel - Crawdad records [CD-001)
EXTT0=
EXTT1=
EXTT2=
EXTT3=
EXTT4=
EXTT5=
EXTT6=
EXTT7=
EXTT8=
EXTT9=
EXTT10=
EXTT11=
EXTT12=
EXTT13=
EXTT14=
EXTT15=
EXTT16=
EXTT17=
EXTT18=
EXTT19=
PLAYORDER=
